# MagicaVoxel @ Ephtracy

# group
o 

# material
mtllib 시위꾼.mtl
usemtl palette

# normals
vn -1 0 0
vn 1 0 0
vn 0 0 1
vn 0 0 -1
vn 0 -1 0
vn 0 1 0

# texcoords
vt 0.0332031 0.5
vt 0.0605469 0.5
vt 0.0683594 0.5
vt 0.232422 0.5
vt 0.369141 0.5
vt 0.841797 0.5
vt 0.958984 0.5
vt 0.962891 0.5
vt 0.994141 0.5

# verts
v -0.6 0.7 0
v -0.6 0.7 -0.1
v -0.6 1 0
v -0.6 1 -0.1
v -0.5 0.6 0
v -0.5 0.6 -0.1
v -0.5 0.7 0
v -0.5 0.7 -0.1
v -0.4 0.5 0
v -0.4 0.5 -0.1
v -0.4 0.6 0
v -0.4 0.6 -0.1
v -0.3 0.3 0.2
v -0.3 0.3 -0.3
v -0.3 0.4 0.2
v -0.3 0.4 -0.3
v -0.3 0.5 0.1
v -0.3 0.5 0
v -0.3 0.6 0
v -0.3 0.6 -0.1
v -0.3 0.6 -0.2
v -0.3 0.7 0.2
v -0.3 0.7 0.1
v -0.3 0.7 0
v -0.3 0.7 -0.1
v -0.3 0.7 -0.2
v -0.3 0.7 -0.3
v -0.3 0.8 0.1
v -0.3 0.8 0
v -0.3 0.9 -0.3
v -0.3 0.9 -0.4
v -0.3 1.2 0.2
v -0.3 1.2 -0.4
v -0.2 0 0
v -0.2 0 -0.1
v -0.2 0.2 0
v -0.2 0.2 -0.1
v -0.2 0.3 0
v -0.2 0.3 -0.1
v -0.2 0.4 0.1
v -0.2 0.4 -0.2
v -0.2 0.5 0.1
v -0.2 0.5 0
v -0.2 0.5 -0.1
v -0.2 0.6 0.2
v -0.2 0.6 0.1
v -0.2 0.6 -0.1
v -0.2 0.6 -0.2
v -0.2 0.6 -0.3
v -0.2 0.7 0.2
v -0.2 0.7 0.1
v -0.2 0.7 0
v -0.2 0.7 -0.2
v -0.2 0.7 -0.3
v -0.2 0.7 -0.4
v -0.2 0.8 0.1
v -0.2 0.8 0
v -0.2 0.9 -0.3
v -0.2 0.9 -0.4
v -0.2 1.2 0.1
v -0.2 1.2 -0.2
v -0.2 1.3 0.1
v -0.2 1.3 -0.2
v -0.1 0.6 -0.3
v -0.1 0.6 -0.4
v -0.1 0.7 -0.3
v -0.1 0.7 -0.4
v -0.1 0.9 0.2
v -0.1 0.9 0.1
v -0.1 1 0.2
v -0.1 1 0.1
v 0.1 0 0
v 0.1 0 -0.1
v 0.1 0.2 0
v 0.1 0.2 -0.1
v 0.1 0.3 0
v 0.1 0.3 -0.1
v 0.1 0.5 -0.2
v 0.1 0.5 -0.3
v 0.1 0.6 0.2
v 0.1 0.6 0.1
v 0.1 0.6 -0.2
v 0.1 0.6 -0.3
v 0.1 0.7 0.2
v 0.1 0.7 0.1
v 0.2 0.7 0.2
v 0.2 0.7 0.1
v 0.2 0.8 0.1
v 0.2 0.9 0.1
v 0.2 1 0.2
v 0.2 1 0.1
v 0.3 0.5 0
v 0.3 0.5 -0.1
v 0.3 0.6 0
v 0.3 0.6 -0.1
v 0.4 0.4 0
v 0.4 0.4 -0.1
v 0.4 0.5 0
v 0.4 0.5 -0.1
v -0.5 0.7 0
v -0.5 0.7 -0.1
v -0.5 1 0
v -0.5 1 -0.1
v -0.4 0.6 0
v -0.4 0.6 -0.1
v -0.4 0.7 0
v -0.4 0.7 -0.1
v -0.2 0.7 0.2
v -0.2 0.7 0.1
v -0.2 0.8 0.1
v -0.2 0.9 0.1
v -0.2 1 0.2
v -0.2 1 0.1
v -0.1 0 0
v -0.1 0 -0.1
v -0.1 0.2 0
v -0.1 0.2 -0.1
v -0.1 0.3 0
v -0.1 0.3 -0.1
v -0.1 0.6 0.2
v -0.1 0.6 0.1
v -0.1 0.7 0.2
v -0.1 0.7 0.1
v 0 0.9 0.2
v 0 0.9 0.1
v 0 1 0.2
v 0 1 0.1
v 0.1 0.6 -0.3
v 0.1 0.6 -0.4
v 0.1 0.7 -0.3
v 0.1 0.7 -0.4
v 0.2 0 0
v 0.2 0 -0.1
v 0.2 0.2 0
v 0.2 0.2 -0.1
v 0.2 0.3 0
v 0.2 0.3 -0.1
v 0.2 0.4 0.1
v 0.2 0.4 -0.2
v 0.2 0.5 0.1
v 0.2 0.5 0
v 0.2 0.5 -0.2
v 0.2 0.5 -0.3
v 0.2 0.6 0.2
v 0.2 0.6 0.1
v 0.2 0.6 0
v 0.2 0.6 -0.1
v 0.2 0.6 -0.3
v 0.2 0.7 0.2
v 0.2 0.7 0.1
v 0.2 0.7 0
v 0.2 0.7 -0.3
v 0.2 0.7 -0.4
v 0.2 0.8 0.1
v 0.2 0.8 0
v 0.2 0.9 -0.3
v 0.2 0.9 -0.4
v 0.2 1.2 0.1
v 0.2 1.2 -0.2
v 0.2 1.3 0.1
v 0.2 1.3 -0.2
v 0.3 0.3 0.2
v 0.3 0.3 0
v 0.3 0.3 -0.1
v 0.3 0.3 -0.3
v 0.3 0.4 0.2
v 0.3 0.4 0
v 0.3 0.4 -0.1
v 0.3 0.4 -0.3
v 0.3 0.5 0.1
v 0.3 0.5 0
v 0.3 0.6 0
v 0.3 0.6 -0.1
v 0.3 0.6 -0.3
v 0.3 0.7 0.2
v 0.3 0.7 0.1
v 0.3 0.7 0
v 0.3 0.7 -0.1
v 0.3 0.8 0.1
v 0.3 0.8 0
v 0.3 0.9 -0.3
v 0.3 0.9 -0.4
v 0.3 1.2 0.2
v 0.3 1.2 -0.4
v 0.4 0.3 0
v 0.4 0.3 -0.1
v 0.4 0.4 0
v 0.4 0.4 -0.1
v 0.4 0.5 0
v 0.4 0.5 -0.1
v 0.4 0.6 0
v 0.4 0.6 -0.1
v 0.5 0.4 0
v 0.5 0.4 -0.1
v 0.5 0.5 0
v 0.5 0.5 -0.1
v -0.3 0.3 0.2
v -0.3 0.4 0.2
v -0.3 0.7 0.2
v -0.3 1.2 0.2
v -0.2 0.6 0.2
v -0.2 0.7 0.2
v -0.2 1 0.2
v -0.1 0.6 0.2
v -0.1 0.7 0.2
v -0.1 0.9 0.2
v -0.1 1 0.2
v 0 0.9 0.2
v 0 1 0.2
v 0.1 0.6 0.2
v 0.1 0.7 0.2
v 0.2 0.6 0.2
v 0.2 0.7 0.2
v 0.2 1 0.2
v 0.3 0.3 0.2
v 0.3 0.4 0.2
v 0.3 0.7 0.2
v 0.3 1.2 0.2
v -0.3 0.5 0.1
v -0.3 0.7 0.1
v -0.2 0.4 0.1
v -0.2 0.5 0.1
v -0.2 0.6 0.1
v -0.2 0.7 0.1
v -0.2 0.8 0.1
v -0.2 0.9 0.1
v -0.2 1 0.1
v -0.2 1.2 0.1
v -0.2 1.3 0.1
v -0.1 0.5 0.1
v -0.1 0.6 0.1
v -0.1 0.7 0.1
v -0.1 0.8 0.1
v -0.1 0.9 0.1
v -0.1 1 0.1
v 0 0.5 0.1
v 0 0.6 0.1
v 0 0.7 0.1
v 0 0.8 0.1
v 0 0.9 0.1
v 0 1 0.1
v 0.1 0.6 0.1
v 0.1 0.7 0.1
v 0.1 0.8 0.1
v 0.1 0.9 0.1
v 0.2 0.4 0.1
v 0.2 0.5 0.1
v 0.2 0.6 0.1
v 0.2 0.7 0.1
v 0.2 0.8 0.1
v 0.2 0.9 0.1
v 0.2 1 0.1
v 0.2 1.2 0.1
v 0.2 1.3 0.1
v 0.3 0.5 0.1
v 0.3 0.7 0.1
v -0.6 0.7 0
v -0.6 1 0
v -0.5 0.6 0
v -0.5 0.7 0
v -0.5 1 0
v -0.4 0.5 0
v -0.4 0.6 0
v -0.4 0.7 0
v -0.3 0.5 0
v -0.3 0.6 0
v -0.3 0.7 0
v -0.3 0.8 0
v -0.2 0 0
v -0.2 0.2 0
v -0.2 0.3 0
v -0.2 0.7 0
v -0.2 0.8 0
v -0.1 0 0
v -0.1 0.2 0
v -0.1 0.3 0
v 0.1 0 0
v 0.1 0.2 0
v 0.1 0.3 0
v 0.2 0 0
v 0.2 0.2 0
v 0.2 0.3 0
v 0.2 0.7 0
v 0.2 0.8 0
v 0.3 0.3 0
v 0.3 0.4 0
v 0.3 0.5 0
v 0.3 0.6 0
v 0.3 0.7 0
v 0.3 0.8 0
v 0.4 0.3 0
v 0.4 0.4 0
v 0.4 0.5 0
v 0.4 0.6 0
v 0.5 0.4 0
v 0.5 0.5 0
v -0.3 0.7 0.1
v -0.3 0.8 0.1
v -0.2 0.7 0.1
v -0.2 0.8 0.1
v 0.2 0.7 0.1
v 0.2 0.8 0.1
v 0.3 0.7 0.1
v 0.3 0.8 0.1
v 0.2 0.5 0
v 0.2 0.6 0
v 0.3 0.5 0
v 0.3 0.6 0
v -0.6 0.7 -0.1
v -0.6 1 -0.1
v -0.5 0.6 -0.1
v -0.5 0.7 -0.1
v -0.5 1 -0.1
v -0.4 0.5 -0.1
v -0.4 0.6 -0.1
v -0.4 0.7 -0.1
v -0.3 0.6 -0.1
v -0.2 0 -0.1
v -0.2 0.2 -0.1
v -0.2 0.3 -0.1
v -0.2 0.5 -0.1
v -0.2 0.6 -0.1
v -0.1 0 -0.1
v -0.1 0.2 -0.1
v -0.1 0.3 -0.1
v 0.1 0 -0.1
v 0.1 0.2 -0.1
v 0.1 0.3 -0.1
v 0.2 0 -0.1
v 0.2 0.2 -0.1
v 0.2 0.3 -0.1
v 0.3 0.3 -0.1
v 0.3 0.4 -0.1
v 0.3 0.5 -0.1
v 0.3 0.6 -0.1
v 0.4 0.3 -0.1
v 0.4 0.4 -0.1
v 0.4 0.5 -0.1
v 0.4 0.6 -0.1
v 0.5 0.4 -0.1
v 0.5 0.5 -0.1
v -0.3 0.6 -0.2
v -0.3 0.7 -0.2
v -0.2 0.4 -0.2
v -0.2 0.6 -0.2
v -0.2 0.7 -0.2
v -0.2 1.2 -0.2
v -0.2 1.3 -0.2
v 0.1 0.5 -0.2
v 0.1 0.6 -0.2
v 0.2 0.4 -0.2
v 0.2 0.5 -0.2
v 0.2 1.2 -0.2
v 0.2 1.3 -0.2
v -0.3 0.3 -0.3
v -0.3 0.4 -0.3
v -0.3 0.7 -0.3
v -0.3 0.9 -0.3
v -0.2 0.6 -0.3
v -0.2 0.7 -0.3
v -0.2 0.9 -0.3
v -0.1 0.6 -0.3
v -0.1 0.7 -0.3
v 0.1 0.5 -0.3
v 0.1 0.6 -0.3
v 0.1 0.7 -0.3
v 0.2 0.5 -0.3
v 0.2 0.6 -0.3
v 0.2 0.7 -0.3
v 0.2 0.9 -0.3
v 0.3 0.3 -0.3
v 0.3 0.4 -0.3
v 0.3 0.6 -0.3
v 0.3 0.9 -0.3
v -0.3 0.9 -0.4
v -0.3 1.2 -0.4
v -0.2 0.7 -0.4
v -0.2 0.9 -0.4
v -0.1 0.6 -0.4
v -0.1 0.7 -0.4
v 0.1 0.6 -0.4
v 0.1 0.7 -0.4
v 0.2 0.7 -0.4
v 0.2 0.9 -0.4
v 0.3 0.9 -0.4
v 0.3 1.2 -0.4
v -0.2 0 0
v -0.1 0 0
v 0.1 0 0
v 0.2 0 0
v -0.2 0 -0.1
v -0.1 0 -0.1
v 0.1 0 -0.1
v 0.2 0 -0.1
v -0.3 0.3 0.2
v 0.3 0.3 0.2
v -0.2 0.3 0.1
v 0.2 0.3 0.1
v -0.2 0.3 0
v -0.1 0.3 0
v 0.1 0.3 0
v 0.2 0.3 0
v 0.3 0.3 0
v 0.4 0.3 0
v -0.2 0.3 -0.1
v -0.1 0.3 -0.1
v 0.1 0.3 -0.1
v 0.2 0.3 -0.1
v 0.3 0.3 -0.1
v 0.4 0.3 -0.1
v -0.2 0.3 -0.2
v 0.2 0.3 -0.2
v -0.3 0.3 -0.3
v 0.3 0.3 -0.3
v 0.4 0.4 0
v 0.5 0.4 0
v 0.4 0.4 -0.1
v 0.5 0.4 -0.1
v -0.3 0.5 0.1
v -0.2 0.5 0.1
v 0.2 0.5 0.1
v 0.3 0.5 0.1
v -0.4 0.5 0
v -0.3 0.5 0
v -0.2 0.5 0
v 0.2 0.5 0
v 0.3 0.5 0
v 0.4 0.5 0
v -0.4 0.5 -0.1
v -0.2 0.5 -0.1
v 0.3 0.5 -0.1
v 0.4 0.5 -0.1
v 0.1 0.5 -0.2
v 0.2 0.5 -0.2
v 0.1 0.5 -0.3
v 0.2 0.5 -0.3
v -0.2 0.6 0.2
v -0.1 0.6 0.2
v 0.1 0.6 0.2
v 0.2 0.6 0.2
v -0.2 0.6 0.1
v -0.1 0.6 0.1
v 0.1 0.6 0.1
v 0.2 0.6 0.1
v -0.5 0.6 0
v -0.4 0.6 0
v 0.2 0.6 0
v 0.3 0.6 0
v -0.5 0.6 -0.1
v -0.4 0.6 -0.1
v -0.3 0.6 -0.1
v -0.2 0.6 -0.1
v 0.2 0.6 -0.1
v 0.3 0.6 -0.1
v -0.3 0.6 -0.2
v -0.2 0.6 -0.2
v 0.1 0.6 -0.2
v -0.2 0.6 -0.3
v -0.1 0.6 -0.3
v 0.1 0.6 -0.3
v 0.2 0.6 -0.3
v 0.3 0.6 -0.3
v -0.1 0.6 -0.4
v 0.1 0.6 -0.4
v -0.3 0.7 0.2
v -0.2 0.7 0.2
v 0.2 0.7 0.2
v 0.3 0.7 0.2
v -0.3 0.7 0.1
v -0.2 0.7 0.1
v 0.2 0.7 0.1
v 0.3 0.7 0.1
v -0.6 0.7 0
v -0.5 0.7 0
v -0.6 0.7 -0.1
v -0.5 0.7 -0.1
v -0.3 0.7 -0.2
v -0.2 0.7 -0.2
v -0.3 0.7 -0.3
v -0.2 0.7 -0.3
v -0.1 0.7 -0.3
v 0.1 0.7 -0.3
v 0.2 0.7 -0.3
v -0.2 0.7 -0.4
v -0.1 0.7 -0.4
v 0.1 0.7 -0.4
v 0.2 0.7 -0.4
v -0.3 0.8 0.1
v -0.2 0.8 0.1
v 0.2 0.8 0.1
v 0.3 0.8 0.1
v -0.3 0.8 0
v -0.2 0.8 0
v 0.2 0.8 0
v 0.3 0.8 0
v -0.1 0.9 0.2
v 0 0.9 0.2
v -0.1 0.9 0.1
v 0 0.9 0.1
v -0.3 0.9 -0.3
v -0.2 0.9 -0.3
v 0.2 0.9 -0.3
v 0.3 0.9 -0.3
v -0.3 0.9 -0.4
v -0.2 0.9 -0.4
v 0.2 0.9 -0.4
v 0.3 0.9 -0.4
v -0.2 1 0.2
v -0.1 1 0.2
v 0 1 0.2
v 0.2 1 0.2
v -0.2 1 0.1
v -0.1 1 0.1
v 0 1 0.1
v 0.2 1 0.1
v -0.3 0.4 0.2
v 0.3 0.4 0.2
v -0.2 0.4 0.1
v 0.2 0.4 0.1
v 0.3 0.4 0
v 0.4 0.4 0
v 0.3 0.4 -0.1
v 0.4 0.4 -0.1
v -0.2 0.4 -0.2
v 0.2 0.4 -0.2
v -0.3 0.4 -0.3
v 0.3 0.4 -0.3
v 0.4 0.5 0
v 0.5 0.5 0
v 0.4 0.5 -0.1
v 0.5 0.5 -0.1
v -0.4 0.6 0
v -0.3 0.6 0
v 0.3 0.6 0
v 0.4 0.6 0
v -0.4 0.6 -0.1
v -0.3 0.6 -0.1
v 0.3 0.6 -0.1
v 0.4 0.6 -0.1
v -0.2 0.7 0.2
v -0.1 0.7 0.2
v 0.1 0.7 0.2
v 0.2 0.7 0.2
v -0.3 0.7 0.1
v -0.2 0.7 0.1
v -0.1 0.7 0.1
v 0.1 0.7 0.1
v 0.2 0.7 0.1
v 0.3 0.7 0.1
v -0.5 0.7 0
v -0.4 0.7 0
v -0.3 0.7 0
v -0.2 0.7 0
v 0.2 0.7 0
v 0.3 0.7 0
v -0.5 0.7 -0.1
v -0.4 0.7 -0.1
v -0.6 1 0
v -0.5 1 0
v -0.6 1 -0.1
v -0.5 1 -0.1
v -0.3 1.2 0.2
v 0.3 1.2 0.2
v -0.2 1.2 0.1
v 0.2 1.2 0.1
v -0.2 1.2 -0.2
v 0.2 1.2 -0.2
v -0.3 1.2 -0.4
v 0.3 1.2 -0.4
v -0.2 1.3 0.1
v 0.2 1.3 0.1
v -0.2 1.3 -0.2
v 0.2 1.3 -0.2

# faces
f 3/1/1 2/1/1 1/1/1
f 4/1/1 2/1/1 3/1/1
f 7/1/1 6/1/1 5/1/1
f 8/1/1 6/1/1 7/1/1
f 11/1/1 10/1/1 9/1/1
f 12/1/1 10/1/1 11/1/1
f 15/3/1 14/3/1 13/3/1
f 16/3/1 14/3/1 15/3/1
f 19/9/1 18/9/1 17/9/1
f 23/9/1 19/9/1 17/9/1
f 24/8/1 20/8/1 19/8/1
f 24/9/1 19/9/1 23/9/1
f 25/9/1 21/9/1 20/9/1
f 25/8/1 20/8/1 24/8/1
f 26/9/1 21/9/1 25/9/1
f 28/9/1 23/9/1 22/9/1
f 29/9/1 27/9/1 26/9/1
f 29/9/1 26/9/1 25/9/1
f 29/9/1 25/9/1 24/9/1
f 30/9/1 27/9/1 29/9/1
f 30/9/1 29/9/1 28/9/1
f 32/9/1 30/9/1 28/9/1
f 32/9/1 31/9/1 30/9/1
f 32/9/1 28/9/1 22/9/1
f 33/9/1 31/9/1 32/9/1
f 36/5/1 35/5/1 34/5/1
f 37/5/1 35/5/1 36/5/1
f 38/1/1 37/1/1 36/1/1
f 39/1/1 37/1/1 38/1/1
f 42/8/1 41/8/1 40/8/1
f 43/8/1 41/8/1 42/8/1
f 44/8/1 41/8/1 43/8/1
f 47/8/1 41/8/1 44/8/1
f 48/8/1 41/8/1 47/8/1
f 50/9/1 46/9/1 45/9/1
f 51/9/1 46/9/1 50/9/1
f 53/9/1 49/9/1 48/9/1
f 54/9/1 49/9/1 53/9/1
f 56/2/1 52/2/1 51/2/1
f 57/2/1 52/2/1 56/2/1
f 58/9/1 55/9/1 54/9/1
f 59/9/1 55/9/1 58/9/1
f 62/9/1 61/9/1 60/9/1
f 63/9/1 61/9/1 62/9/1
f 66/9/1 65/9/1 64/9/1
f 67/9/1 65/9/1 66/9/1
f 70/9/1 69/9/1 68/9/1
f 71/9/1 69/9/1 70/9/1
f 74/5/1 73/5/1 72/5/1
f 75/5/1 73/5/1 74/5/1
f 76/1/1 75/1/1 74/1/1
f 77/1/1 75/1/1 76/1/1
f 82/8/1 79/8/1 78/8/1
f 83/8/1 79/8/1 82/8/1
f 84/9/1 81/9/1 80/9/1
f 85/9/1 81/9/1 84/9/1
f 88/9/1 87/9/1 86/9/1
f 89/9/1 88/9/1 86/9/1
f 90/9/1 89/9/1 86/9/1
f 91/9/1 89/9/1 90/9/1
f 94/1/1 93/1/1 92/1/1
f 95/1/1 93/1/1 94/1/1
f 98/1/1 97/1/1 96/1/1
f 99/1/1 97/1/1 98/1/1
f 100/1/2 101/1/2 102/1/2
f 102/1/2 101/1/2 103/1/2
f 104/1/2 105/1/2 106/1/2
f 106/1/2 105/1/2 107/1/2
f 108/9/2 109/9/2 110/9/2
f 108/9/2 110/9/2 111/9/2
f 108/9/2 111/9/2 112/9/2
f 112/9/2 111/9/2 113/9/2
f 114/5/2 115/5/2 116/5/2
f 116/5/2 115/5/2 117/5/2
f 116/1/2 117/1/2 118/1/2
f 118/1/2 117/1/2 119/1/2
f 120/9/2 121/9/2 122/9/2
f 122/9/2 121/9/2 123/9/2
f 124/9/2 125/9/2 126/9/2
f 126/9/2 125/9/2 127/9/2
f 128/9/2 129/9/2 130/9/2
f 130/9/2 129/9/2 131/9/2
f 132/5/2 133/5/2 134/5/2
f 134/5/2 133/5/2 135/5/2
f 134/1/2 135/1/2 136/1/2
f 136/1/2 135/1/2 137/1/2
f 138/8/2 139/8/2 140/8/2
f 140/8/2 139/8/2 141/8/2
f 141/8/2 139/8/2 142/8/2
f 142/8/2 143/8/2 146/8/2
f 141/8/2 142/8/2 146/8/2
f 146/8/2 143/8/2 147/8/2
f 147/8/2 143/8/2 148/8/2
f 144/9/2 145/9/2 149/9/2
f 149/9/2 145/9/2 150/9/2
f 150/9/2 151/9/2 154/9/2
f 154/9/2 151/9/2 155/9/2
f 152/9/2 153/9/2 156/9/2
f 156/9/2 153/9/2 157/9/2
f 158/9/2 159/9/2 160/9/2
f 160/9/2 159/9/2 161/9/2
f 162/3/2 163/3/2 166/3/2
f 166/3/2 163/3/2 167/3/2
f 164/3/2 165/3/2 168/3/2
f 168/3/2 165/3/2 169/3/2
f 170/9/2 171/9/2 172/9/2
f 170/9/2 172/9/2 176/9/2
f 172/8/2 173/8/2 177/8/2
f 176/9/2 172/9/2 177/9/2
f 173/9/2 174/9/2 178/9/2
f 177/8/2 173/8/2 178/8/2
f 175/9/2 176/9/2 179/9/2
f 177/9/2 178/9/2 180/9/2
f 178/9/2 174/9/2 181/9/2
f 179/9/2 180/9/2 181/9/2
f 180/9/2 178/9/2 181/9/2
f 179/9/2 181/9/2 183/9/2
f 181/9/2 182/9/2 183/9/2
f 175/9/2 179/9/2 183/9/2
f 183/9/2 182/9/2 184/9/2
f 185/1/2 186/1/2 187/1/2
f 187/1/2 186/1/2 188/1/2
f 189/1/2 190/1/2 191/1/2
f 191/1/2 190/1/2 192/1/2
f 193/1/2 194/1/2 195/1/2
f 195/1/2 194/1/2 196/1/2
f 202/9/3 200/9/3 199/9/3
f 203/9/3 200/9/3 202/9/3
f 204/9/3 202/9/3 201/9/3
f 205/9/3 202/9/3 204/9/3
f 207/9/3 200/9/3 203/9/3
f 208/9/3 207/9/3 206/9/3
f 209/9/3 200/9/3 207/9/3
f 209/9/3 207/9/3 208/9/3
f 212/9/3 211/9/3 210/9/3
f 213/9/3 211/9/3 212/9/3
f 214/9/3 200/9/3 209/9/3
f 215/3/3 198/3/3 197/3/3
f 216/3/3 198/3/3 215/3/3
f 217/9/3 214/9/3 213/9/3
f 218/9/3 200/9/3 214/9/3
f 218/9/3 214/9/3 217/9/3
f 222/9/3 220/9/3 219/9/3
f 223/9/3 220/9/3 222/9/3
f 224/9/3 220/9/3 223/9/3
f 230/8/3 222/8/3 221/8/3
f 230/8/3 223/8/3 222/8/3
f 231/8/3 223/8/3 230/8/3
f 232/2/3 225/2/3 224/2/3
f 233/4/3 226/4/3 225/4/3
f 233/2/3 225/2/3 232/2/3
f 234/9/3 227/9/3 226/9/3
f 234/4/3 226/4/3 233/4/3
f 235/9/3 227/9/3 234/9/3
f 236/6/3 231/6/3 230/6/3
f 236/8/3 230/8/3 221/8/3
f 237/8/3 232/8/3 231/8/3
f 237/6/3 231/6/3 236/6/3
f 238/2/3 233/2/3 232/2/3
f 238/8/3 232/8/3 237/8/3
f 239/1/3 234/1/3 233/1/3
f 239/2/3 233/2/3 238/2/3
f 240/1/3 234/1/3 239/1/3
f 242/8/3 237/8/3 236/8/3
f 242/8/3 238/8/3 237/8/3
f 243/1/3 240/1/3 239/1/3
f 243/8/3 238/8/3 242/8/3
f 243/1/3 239/1/3 238/1/3
f 244/1/3 240/1/3 243/1/3
f 245/9/3 241/9/3 240/9/3
f 245/1/3 240/1/3 244/1/3
f 246/8/3 236/8/3 221/8/3
f 246/8/3 242/8/3 236/8/3
f 247/8/3 242/8/3 246/8/3
f 248/8/3 242/8/3 247/8/3
f 249/9/3 244/9/3 243/9/3
f 250/4/3 245/4/3 244/4/3
f 250/9/3 244/9/3 249/9/3
f 251/9/3 241/9/3 245/9/3
f 251/4/3 245/4/3 250/4/3
f 252/9/3 241/9/3 251/9/3
f 253/9/3 229/9/3 228/9/3
f 254/9/3 229/9/3 253/9/3
f 255/9/3 248/9/3 247/9/3
f 255/9/3 249/9/3 248/9/3
f 256/9/3 249/9/3 255/9/3
f 260/1/3 258/1/3 257/1/3
f 261/1/3 258/1/3 260/1/3
f 263/1/3 260/1/3 259/1/3
f 264/1/3 260/1/3 263/1/3
f 265/1/3 263/1/3 262/1/3
f 266/1/3 263/1/3 265/1/3
f 272/9/3 268/9/3 267/9/3
f 273/9/3 268/9/3 272/9/3
f 274/5/3 270/5/3 269/5/3
f 275/1/3 271/1/3 270/1/3
f 275/5/3 270/5/3 274/5/3
f 276/1/3 271/1/3 275/1/3
f 280/5/3 278/5/3 277/5/3
f 281/1/3 279/1/3 278/1/3
f 281/5/3 278/5/3 280/5/3
f 282/1/3 279/1/3 281/1/3
f 289/9/3 284/9/3 283/9/3
f 290/9/3 284/9/3 289/9/3
f 291/1/3 286/1/3 285/1/3
f 292/1/3 286/1/3 291/1/3
f 293/1/3 288/1/3 287/1/3
f 294/1/3 288/1/3 293/1/3
f 295/1/3 293/1/3 292/1/3
f 296/1/3 293/1/3 295/1/3
f 297/9/4 298/9/4 299/9/4
f 299/9/4 298/9/4 300/9/4
f 301/9/4 302/9/4 303/9/4
f 303/9/4 302/9/4 304/9/4
f 305/9/4 306/9/4 307/9/4
f 307/9/4 306/9/4 308/9/4
f 309/1/4 310/1/4 312/1/4
f 312/1/4 310/1/4 313/1/4
f 311/1/4 312/1/4 315/1/4
f 315/1/4 312/1/4 316/1/4
f 314/1/4 315/1/4 317/1/4
f 314/1/4 317/1/4 321/1/4
f 321/1/4 317/1/4 322/1/4
f 318/5/4 319/5/4 323/5/4
f 319/1/4 320/1/4 324/1/4
f 323/5/4 319/5/4 324/5/4
f 324/1/4 320/1/4 325/1/4
f 326/5/4 327/5/4 329/5/4
f 327/1/4 328/1/4 330/1/4
f 329/5/4 327/5/4 330/5/4
f 330/1/4 328/1/4 331/1/4
f 332/1/4 333/1/4 336/1/4
f 336/1/4 333/1/4 337/1/4
f 334/1/4 335/1/4 338/1/4
f 338/1/4 335/1/4 339/1/4
f 337/1/4 338/1/4 340/1/4
f 340/1/4 338/1/4 341/1/4
f 342/9/4 343/9/4 345/9/4
f 345/9/4 343/9/4 346/9/4
f 344/8/4 345/8/4 349/8/4
f 349/8/4 345/8/4 350/8/4
f 344/8/4 349/8/4 351/8/4
f 351/8/4 349/8/4 352/8/4
f 347/9/4 348/9/4 353/9/4
f 353/9/4 348/9/4 354/9/4
f 357/9/4 358/9/4 360/9/4
f 360/9/4 358/9/4 361/9/4
f 359/9/4 360/9/4 362/9/4
f 362/9/4 360/9/4 363/9/4
f 364/8/4 365/8/4 367/8/4
f 365/9/4 366/9/4 368/9/4
f 367/8/4 365/8/4 368/8/4
f 368/9/4 366/9/4 369/9/4
f 355/3/4 356/3/4 371/3/4
f 371/3/4 356/3/4 372/3/4
f 369/9/4 370/9/4 373/9/4
f 368/9/4 369/9/4 373/9/4
f 373/9/4 370/9/4 374/9/4
f 375/9/4 376/9/4 378/9/4
f 377/9/4 378/9/4 380/9/4
f 379/9/4 380/9/4 381/9/4
f 380/9/4 378/9/4 382/9/4
f 381/9/4 380/9/4 382/9/4
f 382/9/4 378/9/4 383/9/4
f 378/9/4 376/9/4 384/9/4
f 383/9/4 378/9/4 384/9/4
f 384/9/4 376/9/4 385/9/4
f 385/9/4 376/9/4 386/9/4
f 391/5/5 388/5/5 387/5/5
f 392/5/5 388/5/5 391/5/5
f 393/5/5 390/5/5 389/5/5
f 394/5/5 390/5/5 393/5/5
f 397/3/5 396/3/5 395/3/5
f 398/3/5 396/3/5 397/3/5
f 399/3/5 397/3/5 395/3/5
f 399/7/5 398/7/5 397/7/5
f 400/7/5 398/7/5 399/7/5
f 401/7/5 398/7/5 400/7/5
f 402/3/5 396/3/5 398/3/5
f 402/7/5 398/7/5 401/7/5
f 403/3/5 396/3/5 402/3/5
f 405/3/5 399/3/5 395/3/5
f 406/7/5 401/7/5 400/7/5
f 407/7/5 401/7/5 406/7/5
f 408/3/5 403/3/5 402/3/5
f 409/1/5 404/1/5 403/1/5
f 409/3/5 403/3/5 408/3/5
f 410/1/5 404/1/5 409/1/5
f 411/3/5 405/3/5 395/3/5
f 411/7/5 408/7/5 407/7/5
f 411/7/5 407/7/5 406/7/5
f 411/7/5 406/7/5 405/7/5
f 412/3/5 409/3/5 408/3/5
f 412/7/5 408/7/5 411/7/5
f 413/3/5 411/3/5 395/3/5
f 413/3/5 412/3/5 411/3/5
f 414/3/5 409/3/5 412/3/5
f 414/3/5 412/3/5 413/3/5
f 417/1/5 416/1/5 415/1/5
f 418/1/5 416/1/5 417/1/5
f 424/9/5 420/9/5 419/9/5
f 425/9/5 420/9/5 424/9/5
f 426/9/5 422/9/5 421/9/5
f 427/9/5 422/9/5 426/9/5
f 429/1/5 425/1/5 424/1/5
f 429/1/5 424/1/5 423/1/5
f 430/1/5 425/1/5 429/1/5
f 431/1/5 428/1/5 427/1/5
f 432/1/5 428/1/5 431/1/5
f 435/8/5 434/8/5 433/8/5
f 436/8/5 434/8/5 435/8/5
f 441/9/5 438/9/5 437/9/5
f 442/9/5 438/9/5 441/9/5
f 443/9/5 440/9/5 439/9/5
f 444/9/5 440/9/5 443/9/5
f 449/1/5 446/1/5 445/1/5
f 450/1/5 446/1/5 449/1/5
f 453/8/5 448/8/5 447/8/5
f 454/8/5 448/8/5 453/8/5
f 455/9/5 452/9/5 451/9/5
f 456/9/5 452/9/5 455/9/5
f 458/9/5 457/9/5 456/9/5
f 459/9/5 457/9/5 458/9/5
f 460/9/5 457/9/5 459/9/5
f 461/9/5 454/9/5 453/9/5
f 462/9/5 454/9/5 461/9/5
f 463/9/5 460/9/5 459/9/5
f 464/9/5 460/9/5 463/9/5
f 469/9/5 466/9/5 465/9/5
f 470/9/5 466/9/5 469/9/5
f 471/9/5 468/9/5 467/9/5
f 472/9/5 468/9/5 471/9/5
f 475/1/5 474/1/5 473/1/5
f 476/1/5 474/1/5 475/1/5
f 479/9/5 478/9/5 477/9/5
f 480/9/5 478/9/5 479/9/5
f 484/9/5 481/9/5 480/9/5
f 485/9/5 481/9/5 484/9/5
f 486/9/5 483/9/5 482/9/5
f 487/9/5 483/9/5 486/9/5
f 492/9/5 489/9/5 488/9/5
f 493/9/5 489/9/5 492/9/5
f 494/9/5 491/9/5 490/9/5
f 495/9/5 491/9/5 494/9/5
f 498/9/5 497/9/5 496/9/5
f 499/9/5 497/9/5 498/9/5
f 504/9/5 501/9/5 500/9/5
f 505/9/5 501/9/5 504/9/5
f 506/9/5 503/9/5 502/9/5
f 507/9/5 503/9/5 506/9/5
f 512/9/5 509/9/5 508/9/5
f 513/9/5 509/9/5 512/9/5
f 514/9/5 511/9/5 510/9/5
f 515/9/5 511/9/5 514/9/5
f 516/3/6 517/3/6 518/3/6
f 518/3/6 517/3/6 519/3/6
f 519/3/6 517/3/6 520/3/6
f 519/3/6 520/3/6 522/3/6
f 520/1/6 521/1/6 522/1/6
f 522/1/6 521/1/6 523/1/6
f 516/3/6 518/3/6 524/3/6
f 519/3/6 522/3/6 525/3/6
f 516/3/6 524/3/6 526/3/6
f 524/3/6 525/3/6 526/3/6
f 525/3/6 522/3/6 527/3/6
f 526/3/6 525/3/6 527/3/6
f 528/1/6 529/1/6 530/1/6
f 530/1/6 529/1/6 531/1/6
f 532/1/6 533/1/6 536/1/6
f 536/1/6 533/1/6 537/1/6
f 534/1/6 535/1/6 538/1/6
f 538/1/6 535/1/6 539/1/6
f 540/9/6 541/9/6 545/9/6
f 545/9/6 541/9/6 546/9/6
f 542/9/6 543/9/6 547/9/6
f 547/9/6 543/9/6 548/9/6
f 544/9/6 545/9/6 552/9/6
f 552/9/6 545/9/6 553/9/6
f 548/9/6 549/9/6 554/9/6
f 554/9/6 549/9/6 555/9/6
f 550/1/6 551/1/6 556/1/6
f 556/1/6 551/1/6 557/1/6
f 558/1/6 559/1/6 560/1/6
f 560/1/6 559/1/6 561/1/6
f 562/9/6 563/9/6 564/9/6
f 564/9/6 563/9/6 565/9/6
f 562/9/6 564/9/6 566/9/6
f 565/9/6 563/9/6 567/9/6
f 562/9/6 566/9/6 568/9/6
f 566/9/6 567/9/6 568/9/6
f 567/9/6 563/9/6 569/9/6
f 568/9/6 567/9/6 569/9/6
f 570/9/6 571/9/6 572/9/6
f 572/9/6 571/9/6 573/9/6
