# MagicaVoxel @ Ephtracy

# group
o 

# material
mtllib 시위꾼 일반.mtl
usemtl palette

# normals
vn -1 0 0
vn 1 0 0
vn 0 0 1
vn 0 0 -1
vn 0 -1 0
vn 0 1 0

# texcoords
vt 0.0332031 0.5
vt 0.0605469 0.5
vt 0.0683594 0.5
vt 0.369141 0.5
vt 0.373047 0.5
vt 0.958984 0.5
vt 0.966797 0.5
vt 0.978516 0.5
vt 0.994141 0.5

# verts
v -0.5 0.6 0.1
v -0.5 0.6 0
v -0.5 0.8 0.1
v -0.5 0.8 0
v -0.4 0.5 0.1
v -0.4 0.5 0
v -0.4 0.6 0.1
v -0.4 0.6 0
v -0.3 0.2 0.2
v -0.3 0.2 -0.3
v -0.3 0.4 0.2
v -0.3 0.4 -0.3
v -0.3 0.5 0
v -0.3 0.5 -0.1
v -0.3 0.6 0.1
v -0.3 0.6 0
v -0.3 0.6 -0.1
v -0.3 0.6 -0.2
v -0.3 0.7 0.2
v -0.3 0.7 0.1
v -0.3 0.7 0
v -0.3 0.7 -0.1
v -0.3 0.7 -0.2
v -0.3 0.7 -0.3
v -0.3 0.8 0.1
v -0.3 0.8 0
v -0.3 1.2 0.2
v -0.3 1.2 -0.3
v -0.2 0 0
v -0.2 0 -0.1
v -0.2 0.2 0
v -0.2 0.2 -0.1
v -0.2 0.4 0.1
v -0.2 0.4 -0.2
v -0.2 0.5 0.1
v -0.2 0.5 0
v -0.2 0.5 -0.1
v -0.2 0.5 -0.2
v -0.2 0.6 0.2
v -0.2 0.6 0.1
v -0.2 0.6 -0.1
v -0.2 0.6 -0.2
v -0.2 0.6 -0.3
v -0.2 0.7 0.2
v -0.2 0.7 0.1
v -0.2 0.7 0
v -0.2 0.7 -0.2
v -0.2 0.7 -0.3
v -0.2 0.7 -0.4
v -0.2 0.8 0.1
v -0.2 0.8 0
v -0.2 1.1 -0.3
v -0.2 1.1 -0.4
v -0.2 1.2 0.1
v -0.2 1.2 -0.2
v -0.2 1.3 0.1
v -0.2 1.3 -0.2
v -0.1 0.6 -0.3
v -0.1 0.6 -0.4
v -0.1 0.7 -0.3
v -0.1 0.7 -0.4
v -0.1 0.8 -0.4
v -0.1 0.8 -0.5
v -0.1 0.9 0.2
v -0.1 0.9 0.1
v -0.1 1 0.2
v -0.1 1 0.1
v -0.1 1 -0.4
v -0.1 1 -0.5
v 0.1 0 0
v 0.1 0 -0.1
v 0.1 0.2 0
v 0.1 0.2 -0.1
v 0.1 0.3 0
v 0.1 0.3 -0.1
v 0.1 0.4 0
v 0.1 0.4 -0.1
v 0.1 0.5 -0.2
v 0.1 0.5 -0.3
v 0.1 0.6 0.2
v 0.1 0.6 0.1
v 0.1 0.6 -0.2
v 0.1 0.6 -0.3
v 0.1 0.7 0.2
v 0.1 0.7 0.1
v 0.2 0.2 0.1
v 0.2 0.2 0
v 0.2 0.2 -0.1
v 0.2 0.2 -0.2
v 0.2 0.3 0
v 0.2 0.3 -0.1
v 0.2 0.4 0.1
v 0.2 0.4 0
v 0.2 0.4 -0.1
v 0.2 0.4 -0.2
v 0.2 0.7 0.2
v 0.2 0.7 0.1
v 0.2 0.8 0.1
v 0.2 0.9 0.1
v 0.2 1 0.2
v 0.2 1 0.1
v 0.3 0.5 0
v 0.3 0.5 -0.1
v 0.3 0.6 0
v 0.3 0.6 -0.1
v 0.4 0.3 0
v 0.4 0.3 -0.1
v 0.4 0.5 0
v 0.4 0.5 -0.1
v -0.4 0.6 0.1
v -0.4 0.6 0
v -0.4 0.8 0.1
v -0.4 0.8 0
v -0.2 0.2 0.1
v -0.2 0.2 0
v -0.2 0.2 -0.1
v -0.2 0.2 -0.2
v -0.2 0.3 0
v -0.2 0.3 -0.1
v -0.2 0.4 0.1
v -0.2 0.4 0
v -0.2 0.4 -0.1
v -0.2 0.4 -0.2
v -0.2 0.7 0.2
v -0.2 0.7 0.1
v -0.2 0.8 0.1
v -0.2 0.9 0.1
v -0.2 1 0.2
v -0.2 1 0.1
v -0.1 0 0
v -0.1 0 -0.1
v -0.1 0.2 0
v -0.1 0.2 -0.1
v -0.1 0.3 0
v -0.1 0.3 -0.1
v -0.1 0.4 0
v -0.1 0.4 -0.1
v -0.1 0.6 0.2
v -0.1 0.6 0.1
v -0.1 0.7 0.2
v -0.1 0.7 0.1
v 0 0.9 0.2
v 0 0.9 0.1
v 0 1 0.2
v 0 1 0.1
v 0.1 0.6 -0.3
v 0.1 0.6 -0.4
v 0.1 0.7 -0.3
v 0.1 0.7 -0.4
v 0.1 0.8 -0.4
v 0.1 0.8 -0.5
v 0.1 1 -0.4
v 0.1 1 -0.5
v 0.2 0 0
v 0.2 0 -0.1
v 0.2 0.2 0
v 0.2 0.2 -0.1
v 0.2 0.2 -0.2
v 0.2 0.2 -0.3
v 0.2 0.4 0.1
v 0.2 0.4 -0.2
v 0.2 0.4 -0.3
v 0.2 0.5 0.1
v 0.2 0.5 0
v 0.2 0.5 -0.2
v 0.2 0.5 -0.3
v 0.2 0.6 0.2
v 0.2 0.6 0.1
v 0.2 0.6 0
v 0.2 0.6 -0.1
v 0.2 0.6 -0.3
v 0.2 0.7 0.2
v 0.2 0.7 0.1
v 0.2 0.7 0
v 0.2 0.7 -0.3
v 0.2 0.7 -0.4
v 0.2 0.8 0.1
v 0.2 0.8 0
v 0.2 1.1 -0.3
v 0.2 1.1 -0.4
v 0.2 1.2 0.1
v 0.2 1.2 -0.2
v 0.2 1.3 0.1
v 0.2 1.3 -0.2
v 0.3 0.2 0.2
v 0.3 0.2 0
v 0.3 0.2 -0.1
v 0.3 0.2 -0.2
v 0.3 0.3 0
v 0.3 0.3 -0.1
v 0.3 0.4 0.2
v 0.3 0.4 -0.2
v 0.3 0.5 0.1
v 0.3 0.5 0
v 0.3 0.6 0
v 0.3 0.6 -0.1
v 0.3 0.6 -0.3
v 0.3 0.7 0.2
v 0.3 0.7 0.1
v 0.3 0.7 0
v 0.3 0.7 -0.1
v 0.3 0.8 0.1
v 0.3 0.8 0
v 0.3 1.2 0.2
v 0.3 1.2 -0.3
v 0.4 0.2 0
v 0.4 0.2 -0.1
v 0.4 0.3 0
v 0.4 0.3 -0.1
v 0.4 0.5 0
v 0.4 0.5 -0.1
v 0.4 0.6 0
v 0.4 0.6 -0.1
v 0.5 0.3 0
v 0.5 0.3 -0.1
v 0.5 0.5 0
v 0.5 0.5 -0.1
v -0.3 0.2 0.2
v -0.3 0.4 0.2
v -0.3 0.7 0.2
v -0.3 1.2 0.2
v -0.2 0.6 0.2
v -0.2 0.7 0.2
v -0.2 1 0.2
v -0.1 0.6 0.2
v -0.1 0.7 0.2
v -0.1 0.9 0.2
v -0.1 1 0.2
v 0 0.9 0.2
v 0 1 0.2
v 0.1 0.6 0.2
v 0.1 0.7 0.2
v 0.2 0.6 0.2
v 0.2 0.7 0.2
v 0.2 1 0.2
v 0.3 0.2 0.2
v 0.3 0.4 0.2
v 0.3 0.7 0.2
v 0.3 1.2 0.2
v -0.5 0.6 0.1
v -0.5 0.8 0.1
v -0.4 0.5 0.1
v -0.4 0.6 0.1
v -0.4 0.8 0.1
v -0.3 0.5 0.1
v -0.3 0.6 0.1
v -0.3 0.7 0.1
v -0.2 0.4 0.1
v -0.2 0.5 0.1
v -0.2 0.6 0.1
v -0.2 0.7 0.1
v -0.2 0.8 0.1
v -0.2 0.9 0.1
v -0.2 1 0.1
v -0.2 1.2 0.1
v -0.2 1.3 0.1
v -0.1 0.6 0.1
v -0.1 0.7 0.1
v -0.1 0.8 0.1
v -0.1 0.9 0.1
v -0.1 1 0.1
v 0 0.7 0.1
v 0 0.8 0.1
v 0 0.9 0.1
v 0 1 0.1
v 0.1 0.6 0.1
v 0.1 0.7 0.1
v 0.1 0.8 0.1
v 0.1 0.9 0.1
v 0.2 0.4 0.1
v 0.2 0.5 0.1
v 0.2 0.6 0.1
v 0.2 0.7 0.1
v 0.2 0.8 0.1
v 0.2 0.9 0.1
v 0.2 1 0.1
v 0.2 1.2 0.1
v 0.2 1.3 0.1
v 0.3 0.5 0.1
v 0.3 0.7 0.1
v -0.3 0.7 0
v -0.3 0.8 0
v -0.2 0 0
v -0.2 0.2 0
v -0.2 0.3 0
v -0.2 0.4 0
v -0.2 0.7 0
v -0.2 0.8 0
v -0.1 0 0
v -0.1 0.2 0
v -0.1 0.3 0
v -0.1 0.4 0
v 0.1 0 0
v 0.1 0.2 0
v 0.1 0.3 0
v 0.1 0.4 0
v 0.2 0 0
v 0.2 0.2 0
v 0.2 0.3 0
v 0.2 0.4 0
v 0.2 0.7 0
v 0.2 0.8 0
v 0.3 0.2 0
v 0.3 0.3 0
v 0.3 0.5 0
v 0.3 0.6 0
v 0.3 0.7 0
v 0.3 0.8 0
v 0.4 0.2 0
v 0.4 0.3 0
v 0.4 0.5 0
v 0.4 0.6 0
v 0.5 0.3 0
v 0.5 0.5 0
v -0.2 0.2 -0.2
v -0.2 0.4 -0.2
v 0.2 0.2 -0.2
v 0.2 0.4 -0.2
v -0.3 0.7 0.1
v -0.3 0.8 0.1
v -0.2 0.2 0.1
v -0.2 0.4 0.1
v -0.2 0.7 0.1
v -0.2 0.8 0.1
v 0.2 0.2 0.1
v 0.2 0.4 0.1
v 0.2 0.7 0.1
v 0.2 0.8 0.1
v 0.3 0.7 0.1
v 0.3 0.8 0.1
v -0.5 0.6 0
v -0.5 0.8 0
v -0.4 0.5 0
v -0.4 0.6 0
v -0.4 0.8 0
v -0.3 0.5 0
v -0.3 0.6 0
v 0.2 0.5 0
v 0.2 0.6 0
v 0.3 0.5 0
v 0.3 0.6 0
v -0.3 0.5 -0.1
v -0.3 0.6 -0.1
v -0.2 0 -0.1
v -0.2 0.2 -0.1
v -0.2 0.3 -0.1
v -0.2 0.4 -0.1
v -0.2 0.5 -0.1
v -0.2 0.6 -0.1
v -0.1 0 -0.1
v -0.1 0.2 -0.1
v -0.1 0.3 -0.1
v -0.1 0.4 -0.1
v 0.1 0 -0.1
v 0.1 0.2 -0.1
v 0.1 0.3 -0.1
v 0.1 0.4 -0.1
v 0.2 0 -0.1
v 0.2 0.2 -0.1
v 0.2 0.3 -0.1
v 0.2 0.4 -0.1
v 0.3 0.2 -0.1
v 0.3 0.3 -0.1
v 0.3 0.5 -0.1
v 0.3 0.6 -0.1
v 0.4 0.2 -0.1
v 0.4 0.3 -0.1
v 0.4 0.5 -0.1
v 0.4 0.6 -0.1
v 0.5 0.3 -0.1
v 0.5 0.5 -0.1
v -0.3 0.6 -0.2
v -0.3 0.7 -0.2
v -0.2 0.4 -0.2
v -0.2 0.5 -0.2
v -0.2 0.6 -0.2
v -0.2 0.7 -0.2
v -0.2 1.2 -0.2
v -0.2 1.3 -0.2
v 0.1 0.5 -0.2
v 0.1 0.6 -0.2
v 0.2 0.2 -0.2
v 0.2 0.4 -0.2
v 0.2 0.5 -0.2
v 0.2 1.2 -0.2
v 0.2 1.3 -0.2
v 0.3 0.2 -0.2
v 0.3 0.4 -0.2
v -0.3 0.2 -0.3
v -0.3 0.4 -0.3
v -0.3 0.7 -0.3
v -0.3 1.2 -0.3
v -0.2 0.6 -0.3
v -0.2 0.7 -0.3
v -0.2 1.1 -0.3
v -0.1 0.6 -0.3
v -0.1 0.7 -0.3
v 0.1 0.5 -0.3
v 0.1 0.6 -0.3
v 0.1 0.7 -0.3
v 0.2 0.2 -0.3
v 0.2 0.4 -0.3
v 0.2 0.5 -0.3
v 0.2 0.6 -0.3
v 0.2 0.7 -0.3
v 0.2 1.1 -0.3
v 0.3 0.6 -0.3
v 0.3 1.2 -0.3
v -0.2 0.7 -0.4
v -0.2 1.1 -0.4
v -0.1 0.6 -0.4
v -0.1 0.7 -0.4
v -0.1 0.8 -0.4
v -0.1 1 -0.4
v 0.1 0.6 -0.4
v 0.1 0.7 -0.4
v 0.1 0.8 -0.4
v 0.1 1 -0.4
v 0.2 0.7 -0.4
v 0.2 1.1 -0.4
v -0.1 0.8 -0.5
v -0.1 1 -0.5
v 0.1 0.8 -0.5
v 0.1 1 -0.5
v -0.2 0 0
v -0.1 0 0
v 0.1 0 0
v 0.2 0 0
v -0.2 0 -0.1
v -0.1 0 -0.1
v 0.1 0 -0.1
v 0.2 0 -0.1
v -0.3 0.2 0.2
v 0.3 0.2 0.2
v -0.2 0.2 0.1
v 0.2 0.2 0.1
v -0.2 0.2 0
v 0.2 0.2 0
v 0.3 0.2 0
v 0.4 0.2 0
v -0.2 0.2 -0.1
v 0.2 0.2 -0.1
v 0.3 0.2 -0.1
v 0.4 0.2 -0.1
v -0.2 0.2 -0.2
v 0.2 0.2 -0.2
v 0.3 0.2 -0.2
v -0.3 0.2 -0.3
v 0.2 0.2 -0.3
v 0.4 0.3 0
v 0.5 0.3 0
v 0.4 0.3 -0.1
v 0.5 0.3 -0.1
v -0.2 0.4 0.1
v 0.2 0.4 0.1
v -0.2 0.4 0
v -0.1 0.4 0
v 0.1 0.4 0
v 0.2 0.4 0
v -0.2 0.4 -0.1
v -0.1 0.4 -0.1
v 0.1 0.4 -0.1
v 0.2 0.4 -0.1
v -0.2 0.4 -0.2
v 0.2 0.4 -0.2
v -0.4 0.5 0.1
v -0.3 0.5 0.1
v -0.2 0.5 0.1
v 0.2 0.5 0.1
v 0.3 0.5 0.1
v -0.4 0.5 0
v -0.3 0.5 0
v -0.2 0.5 0
v 0.2 0.5 0
v 0.3 0.5 0
v 0.4 0.5 0
v -0.3 0.5 -0.1
v -0.2 0.5 -0.1
v 0.3 0.5 -0.1
v 0.4 0.5 -0.1
v 0.1 0.5 -0.2
v 0.2 0.5 -0.2
v 0.1 0.5 -0.3
v 0.2 0.5 -0.3
v -0.2 0.6 0.2
v -0.1 0.6 0.2
v 0.1 0.6 0.2
v 0.2 0.6 0.2
v -0.5 0.6 0.1
v -0.4 0.6 0.1
v -0.2 0.6 0.1
v -0.1 0.6 0.1
v 0.1 0.6 0.1
v 0.2 0.6 0.1
v -0.5 0.6 0
v -0.4 0.6 0
v 0.2 0.6 0
v 0.3 0.6 0
v -0.3 0.6 -0.1
v -0.2 0.6 -0.1
v 0.2 0.6 -0.1
v 0.3 0.6 -0.1
v -0.3 0.6 -0.2
v -0.2 0.6 -0.2
v 0.1 0.6 -0.2
v -0.2 0.6 -0.3
v -0.1 0.6 -0.3
v 0.1 0.6 -0.3
v 0.2 0.6 -0.3
v 0.3 0.6 -0.3
v -0.1 0.6 -0.4
v 0.1 0.6 -0.4
v -0.3 0.7 0.2
v -0.2 0.7 0.2
v 0.2 0.7 0.2
v 0.3 0.7 0.2
v -0.3 0.7 0.1
v -0.2 0.7 0.1
v 0.2 0.7 0.1
v 0.3 0.7 0.1
v -0.3 0.7 -0.2
v -0.2 0.7 -0.2
v -0.3 0.7 -0.3
v -0.2 0.7 -0.3
v -0.1 0.7 -0.3
v 0.1 0.7 -0.3
v 0.2 0.7 -0.3
v -0.2 0.7 -0.4
v -0.1 0.7 -0.4
v 0.1 0.7 -0.4
v 0.2 0.7 -0.4
v -0.3 0.8 0.1
v -0.2 0.8 0.1
v 0.2 0.8 0.1
v 0.3 0.8 0.1
v -0.3 0.8 0
v -0.2 0.8 0
v 0.2 0.8 0
v 0.3 0.8 0
v -0.1 0.8 -0.4
v 0.1 0.8 -0.4
v -0.1 0.8 -0.5
v 0.1 0.8 -0.5
v -0.1 0.9 0.2
v 0 0.9 0.2
v -0.1 0.9 0.1
v 0 0.9 0.1
v -0.2 1 0.2
v -0.1 1 0.2
v 0 1 0.2
v 0.2 1 0.2
v -0.2 1 0.1
v -0.1 1 0.1
v 0 1 0.1
v 0.2 1 0.1
v 0.3 0.3 0
v 0.4 0.3 0
v 0.3 0.3 -0.1
v 0.4 0.3 -0.1
v -0.3 0.4 0.2
v 0.3 0.4 0.2
v -0.2 0.4 0.1
v 0.2 0.4 0.1
v -0.2 0.4 -0.2
v 0.2 0.4 -0.2
v 0.3 0.4 -0.2
v -0.3 0.4 -0.3
v 0.2 0.4 -0.3
v 0.4 0.5 0
v 0.5 0.5 0
v 0.4 0.5 -0.1
v 0.5 0.5 -0.1
v -0.4 0.6 0.1
v -0.3 0.6 0.1
v -0.4 0.6 0
v -0.3 0.6 0
v 0.3 0.6 0
v 0.4 0.6 0
v 0.3 0.6 -0.1
v 0.4 0.6 -0.1
v -0.2 0.7 0.2
v -0.1 0.7 0.2
v 0.1 0.7 0.2
v 0.2 0.7 0.2
v -0.3 0.7 0.1
v -0.2 0.7 0.1
v -0.1 0.7 0.1
v 0.1 0.7 0.1
v 0.2 0.7 0.1
v 0.3 0.7 0.1
v -0.3 0.7 0
v -0.2 0.7 0
v 0.2 0.7 0
v 0.3 0.7 0
v -0.5 0.8 0.1
v -0.4 0.8 0.1
v -0.5 0.8 0
v -0.4 0.8 0
v -0.1 1 -0.4
v 0.1 1 -0.4
v -0.1 1 -0.5
v 0.1 1 -0.5
v -0.2 1.1 -0.3
v 0.2 1.1 -0.3
v -0.2 1.1 -0.4
v 0.2 1.1 -0.4
v -0.3 1.2 0.2
v 0.3 1.2 0.2
v -0.2 1.2 0.1
v 0.2 1.2 0.1
v -0.2 1.2 -0.2
v 0.2 1.2 -0.2
v -0.3 1.2 -0.3
v 0.3 1.2 -0.3
v -0.2 1.3 0.1
v 0.2 1.3 0.1
v -0.2 1.3 -0.2
v 0.2 1.3 -0.2

# faces
f 3/1/1 2/1/1 1/1/1
f 4/1/1 2/1/1 3/1/1
f 7/1/1 6/1/1 5/1/1
f 8/1/1 6/1/1 7/1/1
f 11/5/1 10/5/1 9/5/1
f 12/5/1 10/5/1 11/5/1
f 16/1/1 14/1/1 13/1/1
f 17/1/1 14/1/1 16/1/1
f 20/9/1 16/9/1 15/9/1
f 21/6/1 17/6/1 16/6/1
f 21/9/1 16/9/1 20/9/1
f 22/9/1 18/9/1 17/9/1
f 22/6/1 17/6/1 21/6/1
f 23/9/1 18/9/1 22/9/1
f 25/9/1 20/9/1 19/9/1
f 26/9/1 24/9/1 23/9/1
f 26/9/1 23/9/1 22/9/1
f 26/9/1 22/9/1 21/9/1
f 27/9/1 25/9/1 19/9/1
f 27/9/1 26/9/1 25/9/1
f 28/9/1 24/9/1 26/9/1
f 28/9/1 26/9/1 27/9/1
f 31/4/1 30/4/1 29/4/1
f 32/4/1 30/4/1 31/4/1
f 35/5/1 34/5/1 33/5/1
f 36/5/1 34/5/1 35/5/1
f 37/5/1 34/5/1 36/5/1
f 38/5/1 34/5/1 37/5/1
f 41/6/1 38/6/1 37/6/1
f 42/6/1 38/6/1 41/6/1
f 44/9/1 40/9/1 39/9/1
f 45/9/1 40/9/1 44/9/1
f 47/9/1 43/9/1 42/9/1
f 48/9/1 43/9/1 47/9/1
f 50/2/1 46/2/1 45/2/1
f 51/2/1 46/2/1 50/2/1
f 52/9/1 49/9/1 48/9/1
f 53/9/1 49/9/1 52/9/1
f 56/9/1 55/9/1 54/9/1
f 57/9/1 55/9/1 56/9/1
f 60/9/1 59/9/1 58/9/1
f 61/9/1 59/9/1 60/9/1
f 66/9/1 65/9/1 64/9/1
f 67/9/1 65/9/1 66/9/1
f 68/9/1 63/9/1 62/9/1
f 69/9/1 63/9/1 68/9/1
f 72/4/1 71/4/1 70/4/1
f 73/4/1 71/4/1 72/4/1
f 74/1/1 73/1/1 72/1/1
f 75/1/1 73/1/1 74/1/1
f 76/3/1 75/3/1 74/3/1
f 77/3/1 75/3/1 76/3/1
f 82/6/1 79/6/1 78/6/1
f 83/6/1 79/6/1 82/6/1
f 84/9/1 81/9/1 80/9/1
f 85/9/1 81/9/1 84/9/1
f 90/5/1 87/5/1 86/5/1
f 91/5/1 89/5/1 88/5/1
f 92/5/1 90/5/1 86/5/1
f 93/5/1 90/5/1 92/5/1
f 94/5/1 89/5/1 91/5/1
f 95/5/1 89/5/1 94/5/1
f 98/9/1 97/9/1 96/9/1
f 99/9/1 98/9/1 96/9/1
f 100/9/1 99/9/1 96/9/1
f 101/9/1 99/9/1 100/9/1
f 104/1/1 103/1/1 102/1/1
f 105/1/1 103/1/1 104/1/1
f 108/1/1 107/1/1 106/1/1
f 109/1/1 107/1/1 108/1/1
f 110/1/2 111/1/2 112/1/2
f 112/1/2 111/1/2 113/1/2
f 114/5/2 115/5/2 118/5/2
f 116/5/2 117/5/2 119/5/2
f 114/5/2 118/5/2 120/5/2
f 120/5/2 118/5/2 121/5/2
f 119/5/2 117/5/2 122/5/2
f 122/5/2 117/5/2 123/5/2
f 124/9/2 125/9/2 126/9/2
f 124/9/2 126/9/2 127/9/2
f 124/9/2 127/9/2 128/9/2
f 128/9/2 127/9/2 129/9/2
f 130/4/2 131/4/2 132/4/2
f 132/4/2 131/4/2 133/4/2
f 132/1/2 133/1/2 134/1/2
f 134/1/2 133/1/2 135/1/2
f 134/3/2 135/3/2 136/3/2
f 136/3/2 135/3/2 137/3/2
f 138/9/2 139/9/2 140/9/2
f 140/9/2 139/9/2 141/9/2
f 142/9/2 143/9/2 144/9/2
f 144/9/2 143/9/2 145/9/2
f 146/9/2 147/9/2 148/9/2
f 148/9/2 147/9/2 149/9/2
f 150/9/2 151/9/2 152/9/2
f 152/9/2 151/9/2 153/9/2
f 154/4/2 155/4/2 156/4/2
f 156/4/2 155/4/2 157/4/2
f 158/5/2 159/5/2 161/5/2
f 161/5/2 159/5/2 162/5/2
f 160/5/2 161/5/2 163/5/2
f 163/5/2 161/5/2 164/5/2
f 164/5/2 161/5/2 165/5/2
f 165/6/2 166/6/2 169/6/2
f 164/6/2 165/6/2 169/6/2
f 169/6/2 166/6/2 170/6/2
f 170/6/2 166/6/2 171/6/2
f 167/9/2 168/9/2 172/9/2
f 172/9/2 168/9/2 173/9/2
f 173/1/2 174/1/2 177/1/2
f 177/1/2 174/1/2 178/1/2
f 175/9/2 176/9/2 179/9/2
f 179/9/2 176/9/2 180/9/2
f 181/9/2 182/9/2 183/9/2
f 183/9/2 182/9/2 184/9/2
f 185/5/2 186/5/2 189/5/2
f 187/5/2 188/5/2 190/5/2
f 185/5/2 189/5/2 191/5/2
f 189/5/2 190/5/2 191/5/2
f 190/5/2 188/5/2 192/5/2
f 191/5/2 190/5/2 192/5/2
f 193/9/2 194/9/2 195/9/2
f 193/9/2 195/9/2 199/9/2
f 195/6/2 196/6/2 200/6/2
f 199/9/2 195/9/2 200/9/2
f 196/9/2 197/9/2 201/9/2
f 200/6/2 196/6/2 201/6/2
f 198/9/2 199/9/2 202/9/2
f 200/9/2 201/9/2 203/9/2
f 198/9/2 202/9/2 204/9/2
f 202/9/2 203/9/2 204/9/2
f 201/9/2 197/9/2 205/9/2
f 204/9/2 203/9/2 205/9/2
f 203/9/2 201/9/2 205/9/2
f 206/1/2 207/1/2 208/1/2
f 208/1/2 207/1/2 209/1/2
f 210/1/2 211/1/2 212/1/2
f 212/1/2 211/1/2 213/1/2
f 214/1/2 215/1/2 216/1/2
f 216/1/2 215/1/2 217/1/2
f 223/9/3 221/9/3 220/9/3
f 224/9/3 221/9/3 223/9/3
f 225/9/3 223/9/3 222/9/3
f 226/9/3 223/9/3 225/9/3
f 228/9/3 221/9/3 224/9/3
f 229/9/3 228/9/3 227/9/3
f 230/9/3 221/9/3 228/9/3
f 230/9/3 228/9/3 229/9/3
f 233/9/3 232/9/3 231/9/3
f 234/9/3 232/9/3 233/9/3
f 235/9/3 221/9/3 230/9/3
f 236/5/3 219/5/3 218/5/3
f 237/5/3 219/5/3 236/5/3
f 238/9/3 235/9/3 234/9/3
f 239/9/3 221/9/3 235/9/3
f 239/9/3 235/9/3 238/9/3
f 243/1/3 241/1/3 240/1/3
f 244/1/3 241/1/3 243/1/3
f 245/1/3 243/1/3 242/1/3
f 246/1/3 243/1/3 245/1/3
f 249/9/3 246/9/3 245/9/3
f 249/9/3 247/9/3 246/9/3
f 250/9/3 247/9/3 249/9/3
f 251/9/3 247/9/3 250/9/3
f 257/6/3 250/6/3 249/6/3
f 258/2/3 252/2/3 251/2/3
f 259/7/3 253/7/3 252/7/3
f 259/2/3 252/2/3 258/2/3
f 260/9/3 254/9/3 253/9/3
f 260/7/3 253/7/3 259/7/3
f 261/9/3 254/9/3 260/9/3
f 262/2/3 259/2/3 258/2/3
f 262/6/3 258/6/3 257/6/3
f 263/1/3 260/1/3 259/1/3
f 263/2/3 259/2/3 262/2/3
f 264/1/3 260/1/3 263/1/3
f 266/6/3 257/6/3 249/6/3
f 266/6/3 262/6/3 257/6/3
f 267/1/3 264/1/3 263/1/3
f 267/6/3 262/6/3 266/6/3
f 267/1/3 263/1/3 262/1/3
f 268/1/3 264/1/3 267/1/3
f 269/9/3 265/9/3 264/9/3
f 269/1/3 264/1/3 268/1/3
f 270/5/3 249/5/3 248/5/3
f 271/6/3 266/6/3 249/6/3
f 271/5/3 249/5/3 270/5/3
f 272/6/3 266/6/3 271/6/3
f 273/1/3 268/1/3 267/1/3
f 274/7/3 269/7/3 268/7/3
f 274/1/3 268/1/3 273/1/3
f 275/9/3 265/9/3 269/9/3
f 275/7/3 269/7/3 274/7/3
f 276/9/3 265/9/3 275/9/3
f 277/9/3 256/9/3 255/9/3
f 278/9/3 256/9/3 277/9/3
f 279/9/3 272/9/3 271/9/3
f 279/9/3 273/9/3 272/9/3
f 280/9/3 273/9/3 279/9/3
f 287/9/3 282/9/3 281/9/3
f 288/9/3 282/9/3 287/9/3
f 289/4/3 284/4/3 283/4/3
f 290/1/3 285/1/3 284/1/3
f 290/4/3 284/4/3 289/4/3
f 291/3/3 286/3/3 285/3/3
f 291/1/3 285/1/3 290/1/3
f 292/3/3 286/3/3 291/3/3
f 297/4/3 294/4/3 293/4/3
f 298/1/3 295/1/3 294/1/3
f 298/4/3 294/4/3 297/4/3
f 299/3/3 296/3/3 295/3/3
f 299/1/3 295/1/3 298/1/3
f 300/3/3 296/3/3 299/3/3
f 307/9/3 302/9/3 301/9/3
f 308/9/3 302/9/3 307/9/3
f 309/1/3 304/1/3 303/1/3
f 310/1/3 304/1/3 309/1/3
f 311/1/3 306/1/3 305/1/3
f 312/1/3 306/1/3 311/1/3
f 313/1/3 311/1/3 310/1/3
f 314/1/3 311/1/3 313/1/3
f 317/5/3 316/5/3 315/5/3
f 318/5/3 316/5/3 317/5/3
f 319/9/4 320/9/4 323/9/4
f 323/9/4 320/9/4 324/9/4
f 321/5/4 322/5/4 325/5/4
f 325/5/4 322/5/4 326/5/4
f 327/9/4 328/9/4 329/9/4
f 329/9/4 328/9/4 330/9/4
f 331/1/4 332/1/4 334/1/4
f 334/1/4 332/1/4 335/1/4
f 333/1/4 334/1/4 336/1/4
f 336/1/4 334/1/4 337/1/4
f 338/9/4 339/9/4 340/9/4
f 340/9/4 339/9/4 341/9/4
f 342/1/4 343/1/4 348/1/4
f 348/1/4 343/1/4 349/1/4
f 344/4/4 345/4/4 350/4/4
f 345/1/4 346/1/4 351/1/4
f 350/4/4 345/4/4 351/4/4
f 346/3/4 347/3/4 352/3/4
f 351/1/4 346/1/4 352/1/4
f 352/3/4 347/3/4 353/3/4
f 354/4/4 355/4/4 358/4/4
f 355/1/4 356/1/4 359/1/4
f 358/4/4 355/4/4 359/4/4
f 356/3/4 357/3/4 360/3/4
f 359/1/4 356/1/4 360/1/4
f 360/3/4 357/3/4 361/3/4
f 362/1/4 363/1/4 366/1/4
f 366/1/4 363/1/4 367/1/4
f 364/1/4 365/1/4 368/1/4
f 368/1/4 365/1/4 369/1/4
f 367/1/4 368/1/4 370/1/4
f 370/1/4 368/1/4 371/1/4
f 372/9/4 373/9/4 376/9/4
f 376/9/4 373/9/4 377/9/4
f 374/5/4 375/5/4 380/5/4
f 375/6/4 376/6/4 380/6/4
f 380/6/4 376/6/4 381/6/4
f 374/5/4 380/5/4 383/5/4
f 383/5/4 380/5/4 384/5/4
f 378/9/4 379/9/4 385/9/4
f 385/9/4 379/9/4 386/9/4
f 382/5/4 383/5/4 387/5/4
f 387/5/4 383/5/4 388/5/4
f 391/9/4 392/9/4 394/9/4
f 394/9/4 392/9/4 395/9/4
f 393/9/4 394/9/4 396/9/4
f 396/9/4 394/9/4 397/9/4
f 389/5/4 390/5/4 401/5/4
f 401/5/4 390/5/4 402/5/4
f 398/6/4 399/6/4 403/6/4
f 399/9/4 400/9/4 404/9/4
f 403/6/4 399/6/4 404/6/4
f 404/9/4 400/9/4 405/9/4
f 395/9/4 392/9/4 406/9/4
f 404/9/4 405/9/4 407/9/4
f 405/9/4 406/9/4 407/9/4
f 406/9/4 392/9/4 408/9/4
f 407/9/4 406/9/4 408/9/4
f 409/9/4 410/9/4 412/9/4
f 412/9/4 410/9/4 413/9/4
f 413/9/4 410/9/4 414/9/4
f 411/9/4 412/9/4 415/9/4
f 412/9/4 413/9/4 415/9/4
f 415/9/4 413/9/4 416/9/4
f 416/9/4 413/9/4 417/9/4
f 414/9/4 410/9/4 418/9/4
f 416/9/4 417/9/4 419/9/4
f 417/9/4 418/9/4 419/9/4
f 418/9/4 410/9/4 420/9/4
f 419/9/4 418/9/4 420/9/4
f 421/9/4 422/9/4 423/9/4
f 423/9/4 422/9/4 424/9/4
f 429/4/5 426/4/5 425/4/5
f 430/4/5 426/4/5 429/4/5
f 431/4/5 428/4/5 427/4/5
f 432/4/5 428/4/5 431/4/5
f 435/5/5 434/5/5 433/5/5
f 436/5/5 434/5/5 435/5/5
f 437/5/5 435/5/5 433/5/5
f 438/5/5 434/5/5 436/5/5
f 439/5/5 434/5/5 438/5/5
f 441/5/5 437/5/5 433/5/5
f 442/5/5 439/5/5 438/5/5
f 443/1/5 440/1/5 439/1/5
f 443/5/5 439/5/5 442/5/5
f 444/1/5 440/1/5 443/1/5
f 445/5/5 441/5/5 433/5/5
f 446/5/5 443/5/5 442/5/5
f 447/5/5 443/5/5 446/5/5
f 448/5/5 445/5/5 433/5/5
f 448/5/5 446/5/5 445/5/5
f 449/5/5 446/5/5 448/5/5
f 452/1/5 451/1/5 450/1/5
f 453/1/5 451/1/5 452/1/5
f 456/5/5 455/5/5 454/5/5
f 457/5/5 455/5/5 456/5/5
f 458/5/5 455/5/5 457/5/5
f 459/5/5 455/5/5 458/5/5
f 461/3/5 458/3/5 457/3/5
f 462/3/5 458/3/5 461/3/5
f 464/5/5 461/5/5 460/5/5
f 464/5/5 463/5/5 462/5/5
f 464/5/5 462/5/5 461/5/5
f 465/5/5 463/5/5 464/5/5
f 471/1/5 467/1/5 466/1/5
f 472/9/5 468/9/5 467/9/5
f 472/1/5 467/1/5 471/1/5
f 473/9/5 468/9/5 472/9/5
f 474/9/5 470/9/5 469/9/5
f 475/9/5 470/9/5 474/9/5
f 477/1/5 473/1/5 472/1/5
f 478/1/5 473/1/5 477/1/5
f 479/1/5 476/1/5 475/1/5
f 480/1/5 476/1/5 479/1/5
f 483/6/5 482/6/5 481/6/5
f 484/6/5 482/6/5 483/6/5
f 491/9/5 486/9/5 485/9/5
f 492/9/5 486/9/5 491/9/5
f 493/9/5 488/9/5 487/9/5
f 494/9/5 488/9/5 493/9/5
f 495/1/5 490/1/5 489/1/5
f 496/1/5 490/1/5 495/1/5
f 501/6/5 498/6/5 497/6/5
f 502/6/5 498/6/5 501/6/5
f 503/9/5 500/9/5 499/9/5
f 504/9/5 500/9/5 503/9/5
f 506/9/5 505/9/5 504/9/5
f 507/9/5 505/9/5 506/9/5
f 508/9/5 505/9/5 507/9/5
f 509/9/5 502/9/5 501/9/5
f 510/9/5 502/9/5 509/9/5
f 511/9/5 508/9/5 507/9/5
f 512/9/5 508/9/5 511/9/5
f 517/9/5 514/9/5 513/9/5
f 518/9/5 514/9/5 517/9/5
f 519/9/5 516/9/5 515/9/5
f 520/9/5 516/9/5 519/9/5
f 523/9/5 522/9/5 521/9/5
f 524/9/5 522/9/5 523/9/5
f 528/9/5 525/9/5 524/9/5
f 529/9/5 525/9/5 528/9/5
f 530/9/5 527/9/5 526/9/5
f 531/9/5 527/9/5 530/9/5
f 536/9/5 533/9/5 532/9/5
f 537/9/5 533/9/5 536/9/5
f 538/9/5 535/9/5 534/9/5
f 539/9/5 535/9/5 538/9/5
f 542/9/5 541/9/5 540/9/5
f 543/9/5 541/9/5 542/9/5
f 546/9/5 545/9/5 544/9/5
f 547/9/5 545/9/5 546/9/5
f 552/9/5 549/9/5 548/9/5
f 553/9/5 549/9/5 552/9/5
f 554/9/5 551/9/5 550/9/5
f 555/9/5 551/9/5 554/9/5
f 556/1/6 557/1/6 558/1/6
f 558/1/6 557/1/6 559/1/6
f 560/5/6 561/5/6 562/5/6
f 562/5/6 561/5/6 563/5/6
f 560/5/6 562/5/6 564/5/6
f 563/5/6 561/5/6 565/5/6
f 565/5/6 561/5/6 566/5/6
f 560/5/6 564/5/6 567/5/6
f 564/5/6 565/5/6 567/5/6
f 567/5/6 565/5/6 568/5/6
f 569/1/6 570/1/6 571/1/6
f 571/1/6 570/1/6 572/1/6
f 573/1/6 574/1/6 575/1/6
f 575/1/6 574/1/6 576/1/6
f 577/1/6 578/1/6 579/1/6
f 579/1/6 578/1/6 580/1/6
f 581/9/6 582/9/6 586/9/6
f 586/9/6 582/9/6 587/9/6
f 583/9/6 584/9/6 588/9/6
f 588/9/6 584/9/6 589/9/6
f 585/9/6 586/9/6 591/9/6
f 591/9/6 586/9/6 592/9/6
f 589/9/6 590/9/6 593/9/6
f 593/9/6 590/9/6 594/9/6
f 595/1/6 596/1/6 597/1/6
f 597/1/6 596/1/6 598/1/6
f 599/9/6 600/9/6 601/9/6
f 601/9/6 600/9/6 602/9/6
f 603/9/6 604/9/6 605/9/6
f 605/9/6 604/9/6 606/9/6
f 607/9/6 608/9/6 609/9/6
f 609/9/6 608/9/6 610/9/6
f 607/9/6 609/9/6 611/9/6
f 610/9/6 608/9/6 612/9/6
f 607/9/6 611/9/6 613/9/6
f 611/9/6 612/9/6 613/9/6
f 612/9/6 608/9/6 614/9/6
f 613/9/6 612/9/6 614/9/6
f 615/9/6 616/9/6 617/9/6
f 617/9/6 616/9/6 618/9/6
